<svg id="visual" viewBox="0 0 700 800" width="700" height="800" xmlns="http://www.w3.org/2000/svg" xmlns:xlink="http://www.w3.org/1999/xlink" version="1.1"><path d="M0 76L16.7 74.2C33.3 72.3 66.7 68.7 100 71C133.3 73.3 166.7 81.7 200 83.8C233.3 86 266.7 82 300 82.3C333.3 82.7 366.7 87.3 400 91.5C433.3 95.7 466.7 99.3 500 92.3C533.3 85.3 566.7 67.7 600 63.2C633.3 58.7 666.7 67.3 683.3 71.7L700 76L700 0L683.3 0C666.7 0 633.3 0 600 0C566.7 0 533.3 0 500 0C466.7 0 433.3 0 400 0C366.7 0 333.3 0 300 0C266.7 0 233.3 0 200 0C166.7 0 133.3 0 100 0C66.7 0 33.3 0 16.7 0L0 0Z" fill="#FD7F86" stroke-linecap="round" stroke-linejoin="miter"></path></svg>