<svg id="visual" viewBox="0 0 1440 150" width="1440" height="150" xmlns="http://www.w3.org/2000/svg" xmlns:xlink="http://www.w3.org/1999/xlink" version="1.1"><path d="M0 51L17.2 50.3C34.3 49.7 68.7 48.3 103 51.8C137.3 55.3 171.7 63.7 206 65.3C240.3 67 274.7 62 308.8 57.5C343 53 377 49 411.2 47.7C445.3 46.3 479.7 47.7 514 52C548.3 56.3 582.7 63.7 617 63.5C651.3 63.3 685.7 55.7 720 48.2C754.3 40.7 788.7 33.3 823 36.5C857.3 39.7 891.7 53.3 926 55.7C960.3 58 994.7 49 1028.8 46.2C1063 43.3 1097 46.7 1131.2 47C1165.3 47.3 1199.7 44.7 1234 46.3C1268.3 48 1302.7 54 1337 57.7C1371.3 61.3 1405.7 62.7 1422.8 63.3L1440 64L1440 0L1422.8 0C1405.7 0 1371.3 0 1337 0C1302.7 0 1268.3 0 1234 0C1199.7 0 1165.3 0 1131.2 0C1097 0 1063 0 1028.8 0C994.7 0 960.3 0 926 0C891.7 0 857.3 0 823 0C788.7 0 754.3 0 720 0C685.7 0 651.3 0 617 0C582.7 0 548.3 0 514 0C479.7 0 445.3 0 411.2 0C377 0 343 0 308.8 0C274.7 0 240.3 0 206 0C171.7 0 137.3 0 103 0C68.7 0 34.3 0 17.2 0L0 0Z" fill="#fd7f86" stroke-linecap="round" stroke-linejoin="miter"></path></svg>