<?xml version="1.0" encoding="utf-8"?>
<!-- Generator: Adobe Illustrator 23.0.5, SVG Export Plug-In . SVG Version: 6.00 Build 0)  -->
<svg version="1.1" id="Layer_1" xmlns="http://www.w3.org/2000/svg" xmlns:xlink="http://www.w3.org/1999/xlink" x="0px" y="0px"
	 viewBox="0 0 1200 250" style="enable-background:new 0 0 1200 250;" xml:space="preserve">
<style type="text/css">
	.st0{opacity:0.25;fill:#FD7F86;enable-background:new    ;}
	.st1{opacity:0.5;fill:#FD7F86;enable-background:new    ;}
	.st2{fill:#FD7F86;}
</style>
<path class="st0" d="M0,251.5V145.7c47.8-50.7,103.6-73.6,158-64c70.4,12.3,136.3,76.1,206.8,85.7c73.8,10.1,147.5-38.6,218.2-80.7
	c69.3-41.1,138.3-56.9,209.4-29.9c36.2,13.7,69.8,40.7,104.5,67c92.6,70.4,216.1,160.2,303.1,7.5v120H0V251.5z"/>
<path class="st1" d="M0,251.5v-36.1c13-48.2,27.6-93.7,47.7-128.5C99.4-2.7,165-2.2,224.6,42.1c31.1,23.3,60.1,59.7,89.7,91
	c40.9,43.4,84.7,105.2,130.8,113.6c36.3,6.4,70.9-21.5,98.6-72.2C575.5,116.4,606,32.7,647.3,7.6c40.4-24.7,81.3,15.3,119.1,55.5
	s75.2,89.2,116.9,98.3c59.7,13.3,113.3-52.3,168.9-88.7c30.2-19.9,59-14.2,87.1,17.1c22.4,24.9,48,61.5,60.7,112.5v48.9H0V251.5z"/>
<path class="st2" d="M0,251.5v-12.8c149.9-122.1,314.1-150.2,475.8-84.4c43,17.4,84.2,45.9,127.6,60.6
	c59,19.4,112.5-28.1,165.6-81.1c58.9-58.7,117-99.9,182.2-88c86.5,16,172.5,104.5,248.8,193.8v11.9H0z"/>
</svg>
